<svg viewBox="0 0 512 512" xmlns="http://www.w3.org/2000/svg">
  <!-- Background -->
  <rect width="512" height="512" fill="#8EA9DB" rx="64"/>
  
  <!-- Dollar Sign -->
  <g transform="translate(256, 256)">
    <!-- Main dollar symbol -->
    <path d="M -60 -80 Q -60 -120 -20 -120 L 20 -120 Q 60 -120 60 -80 Q 60 -40 20 -40 L -20 -40 Q -60 -40 -60 0 Q -60 40 -20 40 L 20 40 Q 60 40 60 80 Q 60 120 20 120 L -20 120 Q -60 120 -60 80" 
          stroke="white" 
          stroke-width="24" 
          fill="none"/>
    
    <!-- Vertical line through dollar sign -->
    <line x1="0" y1="-140" x2="0" y2="140" 
          stroke="white" 
          stroke-width="20"/>
    
    <!-- Chart bars in background -->
    <rect x="-120" y="20" width="30" height="60" fill="rgba(255,255,255,0.3)" rx="4"/>
    <rect x="-80" y="-20" width="30" height="100" fill="rgba(255,255,255,0.3)" rx="4"/>
    <rect x="50" y="-60" width="30" height="140" fill="rgba(255,255,255,0.3)" rx="4"/>
    <rect x="90" y="0" width="30" height="80" fill="rgba(255,255,255,0.3)" rx="4"/>
  </g>
  
  <!-- App name -->
  <text x="256" y="420" 
        font-family="Arial, sans-serif" 
        font-size="48" 
        font-weight="bold" 
        text-anchor="middle" 
        fill="white">
    WealthTracker
  </text>
</svg>